<?xml version="1.0" encoding="UTF-8" standalone="no"?>
<!-- Created with Inkscape (http://www.inkscape.org/) -->
<svg
   xmlns:dc="http://purl.org/dc/elements/1.1/"
   xmlns:cc="http://web.resource.org/cc/"
   xmlns:rdf="http://www.w3.org/1999/02/22-rdf-syntax-ns#"
   xmlns:svg="http://www.w3.org/2000/svg"
   xmlns="http://www.w3.org/2000/svg"
   xmlns:sodipodi="http://sodipodi.sourceforge.net/DTD/sodipodi-0.dtd"
   xmlns:inkscape="http://www.inkscape.org/namespaces/inkscape"
   width="750.62408"
   height="496.92838"
   id="svg2"
   sodipodi:version="0.32"
   inkscape:version="0.45.1"
   version="1.0"
   sodipodi:docbase="C:\Documents and Settings\AndrewK\My Documents\Graphix"
   sodipodi:docname="ak.svg"
   inkscape:output_extension="org.inkscape.output.svg.inkscape">
  <defs
     id="defs4" />
  <sodipodi:namedview
     id="base"
     pagecolor="#ffffff"
     bordercolor="#666666"
     borderopacity="1.0"
     gridtolerance="10000"
     guidetolerance="10"
     objecttolerance="10"
     inkscape:pageopacity="0.0"
     inkscape:pageshadow="2"
     inkscape:zoom="1.4"
     inkscape:cx="444.4518"
     inkscape:cy="169.12713"
     inkscape:document-units="px"
     inkscape:current-layer="layer1"
     inkscape:window-width="1680"
     inkscape:window-height="1027"
     inkscape:window-x="-4"
     inkscape:window-y="-4" />
  <metadata
     id="metadata7">
    <rdf:RDF>
      <cc:Work
         rdf:about="">
        <dc:format>image/svg+xml</dc:format>
        <dc:type
           rdf:resource="http://purl.org/dc/dcmitype/StillImage" />
      </cc:Work>
    </rdf:RDF>
  </metadata>
  <g
     inkscape:label="Layer 1"
     inkscape:groupmode="layer"
     id="layer1"
     transform="translate(11.865879,-177.4336)">
    <path
       style="fill:#ffffff"
       d="M 638.2371,672.8997 C 630.77784,671.28064 624.95356,668.08045 619.45026,662.57715 C 615.44279,658.56968 421.8288,420.12792 421.27547,418.51863 C 421.11269,418.04521 457.78769,373.83315 502.77547,320.26959 C 547.76324,266.70603 585.73862,221.09307 587.16519,218.90745 C 596.95873,203.90303 591.17228,198.40777 562.32142,195.31393 L 551.07142,194.10753 L 551.07142,185.77057 L 551.07142,177.4336 L 633.07142,177.4336 L 715.07142,177.4336 L 715.07142,185.37458 C 715.07142,189.74212 714.73392,193.51903 714.32142,193.76771 C 713.90892,194.01638 708.39642,194.96407 702.07142,195.87367 C 673.80157,199.93918 661.82385,204.81109 649.82732,217.12381 C 637.50272,229.77325 479.00933,406.7556 479.30302,407.54052 C 480.01624,409.4467 669.39424,623.35829 672.77095,626.07189 C 685.45419,636.26442 704.0941,640.5824 727.23528,638.68869 L 736.89914,637.89786 L 738.118,645.73302 C 738.82095,650.2518 738.96323,653.92384 738.45414,654.40846 C 737.96864,654.87062 730.59642,657.34184 722.07142,659.90005 C 677.21994,673.35926 655.71642,676.69368 638.2371,672.8997 z M -11.865855,668.68948 C -11.831355,668.27375 -10.593855,664.56654 -9.1158555,660.45125 L -6.4285755,652.96891 L 9.1681845,649.83964 C 39.652855,643.72333 52.199135,639.00438 60.320615,630.60001 C 62.800745,628.03348 72.633025,614.4586 82.170125,600.4336 C 91.707215,586.4086 113.47405,554.36555 130.54086,529.22683 C 168.46167,473.37101 217.84426,400.67433 263.54249,333.4336 C 336.42802,226.18928 347.07142,210.40604 347.07142,209.56743 C 347.07142,207.18953 325.44823,199.5462 308.29031,195.85915 L 300.07142,194.093 L 300.07142,185.7633 L 300.07142,177.4336 L 388.57142,177.4336 L 477.07142,177.4336 L 477.07142,185.78895 L 477.07142,194.1443 L 468.82142,195.92369 C 449.49562,200.09196 427.93575,208.47836 422.45453,213.95958 L 420.07142,216.34269 L 420.07142,422.80636 C 420.07142,536.36137 420.36545,630.03626 420.72482,630.97277 C 421.0842,631.90928 424.03096,634.39006 427.2732,636.48562 C 435.98008,642.11315 450.33795,647.1413 468.82142,651.03588 L 477.07142,652.7742 L 477.07142,661.1039 L 477.07142,669.4336 L 388.57142,669.4336 L 300.07142,669.4336 L 300.07142,661.07825 L 300.07142,652.72291 L 308.32142,650.95263 C 329.80063,646.34363 350.75115,638.19881 354.99052,632.80932 C 357.05126,630.18951 357.07142,629.51622 357.07142,563.29874 L 357.07142,496.4336 L 277.19011,496.4336 L 197.3088,496.4336 L 194.84386,499.6836 C 192.62779,502.60547 184.03521,515.16418 131.72707,591.9336 C 123.48253,604.0336 114.38124,617.38358 111.50198,621.60022 C 105.36969,630.58088 104.31683,634.07371 106.48072,638.2582 C 109.26081,643.63431 121.8718,647.94359 143.97159,651.06915 C 150.3515,651.97145 155.68061,652.79427 155.81407,652.89763 C 155.94752,653.00099 154.75672,656.65137 153.16783,661.00958 L 150.27895,668.9336 L 69.175195,669.18948 C 24.568125,669.33021 -11.900345,669.10521 -11.865855,668.68948 z M 357.07142,360.76693 C 357.07142,305.95027 356.90321,261.28777 356.69762,261.51693 C 356.49204,261.7461 345.15371,278.3586 331.50134,298.4336 C 317.84897,318.5086 297.18165,348.8836 285.57397,365.9336 C 273.9663,382.9836 254.92963,410.95146 243.27026,428.08439 C 231.6109,445.21733 222.07142,459.50483 222.07142,459.83439 C 222.07142,460.16396 252.44642,460.4336 289.57142,460.4336 L 357.07142,460.4336 L 357.07142,360.76693 z "
       id="path2221" />
  </g>
</svg>
